- 
http://www.Speed.Cd 
       
http://www.Speed.Cd       the fast  and The Hottest Private Tracker on the net

(((--Registration will be open on june every weekend--)))

Please Seed back to make the speed Faster!!!

------------------nfo--------------------------
-                                                                                                     
       
     
     
       
       
     
     
                                         
                                         
                EXVID                    
                                         
         
                                         
         Filled the Archives             
                                         
         
                                         
                With:                    
                                         
         
                                         
                                    
     E240                           
                                    
     SP               (C) 2009      
                                         
     
     
     
                                                                                  
                                                                                   
              Operation.Daybreak.1975.WS.DVDRip.XviD-EXViD                          
                                                                                   
                                                                                  
     
                                                                                               
EXViD aims to iNTERNAL those releases which have been lost in the archives.
EXViD aims to PRE non-internal releases which have poor sources and are likely skipped by others. 
http://www.imdb.com/title/tt0075019/
Subtitles: None
Date: 2011.07

Director: Lewis Gilbert

Genres: Adventure | Drama | War

Plot:
In 1942 Czechoslovakia, SS-General Reinhard Heydrich is appointed to become the Reich Protector
of Bohemia and Moravia. The terror and oppression that follow cause Allied authorities in London
to authorize a secret mission to kill the man who has come to be known as "The Butcher of Prague".
The film explores shows the operation leading up to Heydrich's death as well as the massive
German reprisals that followed it.

Cast:
Timothy Bottoms 	 ... 	 Jan Kubis 
Martin Shaw 	 ... 	 Karel Curda 
Joss Ackland 	 ... 	 Jank 
Nicola Pagett 	 ... 	 Anna 
Anthony Andrews 	 ... 	 Jozef Gabck 
Anton Diffring 	 ... 	Reinhard Heydrich 
Carl Duering 	 ... 	 Karl Frank 
Cyril Shaps 	 ... 	 Father Petrek 
Diana Coupland 	 ... 	 Aunt Marie 
Ronald Radd 	 ... 	 Aunt Marie's Husband 
Kim Fortune 	 ... 	 Ata 
Pavla Matjuvsk 	 ... 	 Jindriska (as Pavla Matejovsk) 
Ray Smith 	 ... 	 Hjek 
George Sewell 	 ... 	 Heinz Panwitz, Chief Investigator 
Reinhard Kolldehoff 	 ... 	 Fleischer, Gestapo (as Rene Kolldehoff)

Stats:
Format                           : AVI
Format/Info                      : Audio Video Interleave
File size                        : 701 MiB
Duration                         : 2h 2mn
Overall bit rate                 : 799 Kbps
Writing application              : Nandub v1.0rc2
Writing library                  : Nandub build 1852/release

Video
ID                               : 0
Format                           : MPEG-4 Visual
Format profile                   : Advanced Simple@L5
Format settings, BVOP            : 2
Format settings, QPel            : No
Format settings, GMC             : No warppoints
Format settings, Matrix          : Default (H.263)
Codec ID                         : XVID
Codec ID/Hint                    : XviD
Duration                         : 2h 2mn
Bit rate                         : 711 Kbps
Width                            : 576 pixels
Height                           : 320 pixels
Display aspect ratio             : 16:9
Frame rate                       : 23.976 fps
Color space                      : YUV
Chroma subsampling               : 4:2:0
Bit depth                        : 8 bits
Scan type                        : Progressive
Compression mode                 : Lossy
Bits/(Pixel*Frame)               : 0.161
Stream size                      : 624 MiB (89%)
Writing library                  : XviD 1.2.1 (UTC 2008-12-04)

Audio
ID                               : 1
Format                           : MPEG Audio
Format version                   : Version 1
Format profile                   : Layer 3
Codec ID                         : 55
Codec ID/Hint                    : MP3
Duration                         : 2h 2mn
Bit rate mode                    : Variable
Bit rate                         : 74.9 Kbps
Nominal bit rate                 : 80.0 Kbps
Channel(s)                       : 1 channel
Sampling rate                    : 48.0 KHz
Compression mode                 : Lossy
Stream size                      : 65.7 MiB (9%)
Alignment                        : Aligned on interleaves
Interleave, duration             : 24 ms (0.58 video frame)
Interleave, preload duration     : 235 ms
Writing library                  : LAME3.98r
Encoding settings                : -m m -V 4 -q 3 -lowpass 20.3 --abr 80




Release notes:
The FiNaLe release was FS. Sample included.

enjoy!

Looking for:
75TB+ Archives
DUTCH/FLEMiSH Archives
                                                                                                    
Greets: CRBS EPiSODE FiCO FLS iLS KLASSiGER LiPSYNC MADE NODLABS RUNNER SPRiNTER      
   

                                                                    ASCII DONE BY XX^NFO 2oo9